<svg xmlns="http://www.w3.org/2000/svg" viewBox="0 0 900 560" width="900" height="560">
<rect width="900" height="560" fill="rgb(96, 100, 106)"/>
<polygon points="772.6,560.0 887.0,555.2 900.0,560.0" fill="rgb(72,76,82)" />
<polygon points="0.0,560.0 40.6,557.9 98.7,560.0" fill="rgb(136,140,146)" />
<polygon points="0.0,528.0 0.0,404.5 32.8,487.8" fill="rgb(148,152,157)" />
<polygon points="0.0,347.7 41.3,338.8 32.2,383.1" fill="rgb(222,223,226)" />
<polygon points="836.6,533.2 772.6,560.0 770.3,552.6" fill="rgb(74,78,84)" />
<polygon points="772.6,560.0 836.6,533.2 887.0,555.2" fill="rgb(75,79,85)" />
<polygon points="249.2,550.6 371.2,560.0 98.7,560.0" fill="rgb(194,196,200)" />
<polygon points="333.2,524.1 371.2,560.0 249.2,550.6" fill="rgb(195,196,200)" />
<polygon points="371.2,560.0 333.2,524.1 353.4,509.7" fill="rgb(163,165,170)" />
<polygon points="40.6,557.9 29.0,518.0 98.7,560.0" fill="rgb(222,223,225)" />
<polygon points="29.0,518.0 0.0,528.0 32.8,487.8" fill="rgb(73,77,83)" />
<polygon points="208.6,537.3 142.0,526.8 171.1,475.9" fill="rgb(165,168,173)" />
<polygon points="236.7,410.2 208.6,537.3 171.1,475.9" fill="rgb(208,209,212)" />
<polygon points="208.6,537.3 249.2,550.6 98.7,560.0" fill="rgb(183,185,189)" />
<polygon points="142.0,526.8 208.6,537.3 98.7,560.0" fill="rgb(107,111,117)" />
<polygon points="48.9,152.6 106.2,195.9 34.3,200.5" fill="rgb(116,120,126)" />
<polygon points="106.2,195.9 48.9,152.6 110.3,165.1" fill="rgb(112,116,122)" />
<polygon points="19.0,165.3 0.0,275.8 0.0,125.7" fill="rgb(132,136,142)" />
<polygon points="0.0,275.8 19.0,165.3 34.3,200.5" fill="rgb(72,76,82)" />
<polygon points="48.9,152.6 19.0,165.3 0.0,125.7" fill="rgb(182,184,189)" />
<polygon points="19.0,165.3 48.9,152.6 34.3,200.5" fill="rgb(108,112,118)" />
<polygon points="46.9,230.0 0.0,275.8 34.3,200.5" fill="rgb(208,209,212)" />
<polygon points="0.0,553.4 40.6,557.9 0.0,560.0" fill="rgb(141,145,150)" />
<polygon points="0.0,553.4 29.0,518.0 40.6,557.9" fill="rgb(183,185,189)" />
<polygon points="29.0,518.0 0.0,553.4 0.0,528.0" fill="rgb(74,78,84)" />
<polygon points="0.0,400.2 0.0,347.7 32.2,383.1" fill="rgb(198,200,203)" />
<polygon points="0.0,404.5 0.0,400.2 32.2,383.1" fill="rgb(72,76,82)" />
<polygon points="41.3,338.8 73.9,394.8 32.2,383.1" fill="rgb(107,111,117)" />
<polygon points="97.9,433.0 73.9,394.8 134.9,368.3" fill="rgb(81,85,91)" />
<polygon points="0.0,275.8 33.3,299.9 0.0,347.7" fill="rgb(165,168,173)" />
<polygon points="33.3,299.9 41.3,338.8 0.0,347.7" fill="rgb(125,129,135)" />
<polygon points="33.3,299.9 46.9,230.0 87.6,263.2" fill="rgb(221,222,224)" />
<polygon points="46.9,230.0 33.3,299.9 0.0,275.8" fill="rgb(199,200,204)" />
<polygon points="0.0,0.0 21.0,99.5 0.0,125.7" fill="rgb(198,200,203)" />
<polygon points="45.4,69.0 21.0,99.5 0.0,0.0" fill="rgb(152,155,160)" />
<polygon points="21.0,99.5 48.9,152.6 0.0,125.7" fill="rgb(171,174,178)" />
<polygon points="320.1,241.8 335.9,203.5 413.2,282.8" fill="rgb(119,123,129)" />
<polygon points="268.5,13.4 179.4,0.0 413.4,0.0" fill="rgb(183,186,190)" />
<polygon points="179.4,0.0 268.5,13.4 208.4,51.5" fill="rgb(207,208,211)" />
<polygon points="645.0,217.2 622.9,243.3 606.4,232.4" fill="rgb(164,166,171)" />
<polygon points="707.8,272.6 779.6,241.2 723.2,310.1" fill="rgb(228,229,231)" />
<polygon points="720.6,211.2 685.5,216.6 718.1,165.4" fill="rgb(203,204,207)" />
<polygon points="707.8,272.6 720.6,211.2 779.6,241.2" fill="rgb(162,165,169)" />
<polygon points="720.6,211.2 707.8,272.6 685.5,216.6" fill="rgb(111,115,121)" />
<polygon points="848.5,10.2 871.3,37.7 847.0,66.3" fill="rgb(220,221,224)" />
<polygon points="779.6,241.2 793.2,330.2 723.2,310.1" fill="rgb(93,97,103)" />
<polygon points="828.9,257.9 793.2,330.2 779.6,241.2" fill="rgb(72,76,82)" />
<polygon points="885.3,236.6 900.0,218.2 882.4,279.5" fill="rgb(75,79,85)" />
<polygon points="828.9,257.9 885.3,236.6 882.4,279.5" fill="rgb(131,135,141)" />
<polygon points="154.3,306.1 93.0,315.8 87.6,263.2" fill="rgb(166,168,173)" />
<polygon points="93.0,315.8 33.3,299.9 87.6,263.2" fill="rgb(129,133,139)" />
<polygon points="33.3,299.9 93.0,315.8 41.3,338.8" fill="rgb(94,98,104)" />
<polygon points="142.0,526.8 117.2,478.3 171.1,475.9" fill="rgb(216,217,220)" />
<polygon points="117.2,478.3 97.9,433.0 171.1,475.9" fill="rgb(212,213,216)" />
<polygon points="97.9,433.0 117.2,478.3 32.8,487.8" fill="rgb(180,182,186)" />
<polygon points="117.2,478.3 142.0,526.8 98.7,560.0" fill="rgb(222,223,226)" />
<polygon points="29.0,518.0 117.2,478.3 98.7,560.0" fill="rgb(209,210,213)" />
<polygon points="117.2,478.3 29.0,518.0 32.8,487.8" fill="rgb(140,144,149)" />
<polygon points="413.2,282.8 413.1,353.2 370.8,348.6" fill="rgb(94,98,104)" />
<polygon points="793.2,330.2 714.6,353.5 723.2,310.1" fill="rgb(73,77,83)" />
<polygon points="448.7,293.4 413.2,282.8 465.6,229.3" fill="rgb(206,207,210)" />
<polygon points="448.7,293.4 413.1,353.2 413.2,282.8" fill="rgb(228,229,231)" />
<polygon points="254.1,359.7 220.6,356.0 210.0,299.3" fill="rgb(232,233,235)" />
<polygon points="332.3,416.2 335.3,363.4 370.8,348.6" fill="rgb(191,192,196)" />
<polygon points="309.7,411.5 335.3,363.4 332.3,416.2" fill="rgb(179,181,186)" />
<polygon points="900.0,512.3 892.2,416.5 900.0,218.2" fill="rgb(76,80,86)" />
<polygon points="887.0,555.2 900.0,512.3 900.0,560.0" fill="rgb(108,112,118)" />
<polygon points="772.6,560.0 703.0,534.6 770.3,552.6" fill="rgb(78,82,88)" />
<polygon points="171.4,227.2 154.3,306.1 87.6,263.2" fill="rgb(167,170,175)" />
<polygon points="106.2,195.9 171.4,227.2 87.6,263.2" fill="rgb(169,172,176)" />
<polygon points="154.3,306.1 171.4,227.2 210.0,299.3" fill="rgb(105,109,115)" />
<polygon points="74.9,238.0 106.2,195.9 87.6,263.2" fill="rgb(193,195,199)" />
<polygon points="46.9,230.0 74.9,238.0 87.6,263.2" fill="rgb(99,103,109)" />
<polygon points="106.2,195.9 74.9,238.0 34.3,200.5" fill="rgb(153,156,161)" />
<polygon points="74.9,238.0 46.9,230.0 34.3,200.5" fill="rgb(86,90,96)" />
<polygon points="26.9,429.1 97.9,433.0 32.8,487.8" fill="rgb(72,76,82)" />
<polygon points="26.9,429.1 73.9,394.8 97.9,433.0" fill="rgb(74,78,84)" />
<polygon points="0.0,404.5 26.9,429.1 32.8,487.8" fill="rgb(159,162,167)" />
<polygon points="26.9,429.1 0.0,404.5 32.2,383.1" fill="rgb(190,192,196)" />
<polygon points="73.9,394.8 26.9,429.1 32.2,383.1" fill="rgb(81,85,91)" />
<polygon points="73.8,86.6 21.0,99.5 45.4,69.0" fill="rgb(75,79,85)" />
<polygon points="21.0,99.5 73.8,86.6 48.9,152.6" fill="rgb(83,87,93)" />
<polygon points="73.8,86.6 45.4,69.0 88.7,37.3" fill="rgb(76,80,86)" />
<polygon points="120.3,70.2 73.8,86.6 88.7,37.3" fill="rgb(192,193,197)" />
<polygon points="166.5,27.5 120.3,70.2 88.7,37.3" fill="rgb(214,215,218)" />
<polygon points="166.5,27.5 79.7,0.0 179.4,0.0" fill="rgb(219,220,223)" />
<polygon points="79.7,0.0 166.5,27.5 88.7,37.3" fill="rgb(225,226,228)" />
<polygon points="166.5,27.5 179.4,0.0 208.4,51.5" fill="rgb(139,143,149)" />
<polygon points="413.2,282.8 437.4,181.9 465.6,229.3" fill="rgb(135,139,144)" />
<polygon points="335.9,203.5 437.4,181.9 413.2,282.8" fill="rgb(116,120,126)" />
<polygon points="46.3,0.0 45.4,69.0 0.0,0.0" fill="rgb(133,137,143)" />
<polygon points="45.4,69.0 46.3,0.0 88.7,37.3" fill="rgb(190,192,196)" />
<polygon points="46.3,0.0 79.7,0.0 88.7,37.3" fill="rgb(193,194,198)" />
<polygon points="355.9,166.6 335.9,203.5 324.8,160.1" fill="rgb(186,188,192)" />
<polygon points="341.7,132.1 355.9,166.6 324.8,160.1" fill="rgb(217,218,221)" />
<polygon points="355.9,166.6 437.4,181.9 335.9,203.5" fill="rgb(205,207,210)" />
<polygon points="345.9,12.7 268.5,13.4 413.4,0.0" fill="rgb(194,196,199)" />
<polygon points="268.5,13.4 345.9,12.7 360.6,54.1" fill="rgb(192,194,197)" />
<polygon points="402.9,28.9 345.9,12.7 413.4,0.0" fill="rgb(185,187,191)" />
<polygon points="345.9,12.7 402.9,28.9 360.6,54.1" fill="rgb(231,232,234)" />
<polygon points="671.7,296.9 707.8,272.6 723.2,310.1" fill="rgb(215,216,219)" />
<polygon points="645.0,217.2 671.7,296.9 622.9,243.3" fill="rgb(72,76,82)" />
<polygon points="714.6,353.5 671.7,296.9 723.2,310.1" fill="rgb(146,150,155)" />
<polygon points="671.7,296.9 645.0,217.2 685.5,216.6" fill="rgb(172,175,180)" />
<polygon points="707.8,272.6 671.7,296.9 685.5,216.6" fill="rgb(125,129,135)" />
<polygon points="720.6,211.2 769.4,217.8 779.6,241.2" fill="rgb(140,143,149)" />
<polygon points="888.9,0.0 900.0,0.0 900.0,37.4" fill="rgb(139,143,149)" />
<polygon points="871.3,37.7 888.9,0.0 900.0,37.4" fill="rgb(72,76,82)" />
<polygon points="888.9,0.0 871.3,37.7 848.5,10.2" fill="rgb(229,230,232)" />
<polygon points="900.0,57.8 871.3,37.7 900.0,37.4" fill="rgb(73,77,83)" />
<polygon points="587.9,0.0 522.0,13.7 413.4,0.0" fill="rgb(72,76,82)" />
<polygon points="522.0,13.7 587.9,0.0 581.4,31.8" fill="rgb(114,118,124)" />
<polygon points="813.8,28.6 848.5,10.2 847.0,66.3" fill="rgb(72,76,82)" />
<polygon points="779.6,101.2 813.8,28.6 847.0,66.3" fill="rgb(72,76,82)" />
<polygon points="813.8,28.6 779.6,101.2 749.5,57.8" fill="rgb(197,199,202)" />
<polygon points="779.6,101.2 725.5,77.3 749.5,57.8" fill="rgb(218,219,222)" />
<polygon points="881.5,325.1 828.9,257.9 882.4,279.5" fill="rgb(177,179,184)" />
<polygon points="881.5,325.1 793.2,330.2 828.9,257.9" fill="rgb(206,207,210)" />
<polygon points="900.0,218.2 881.5,325.1 882.4,279.5" fill="rgb(212,213,216)" />
<polygon points="892.2,416.5 881.5,325.1 900.0,218.2" fill="rgb(220,221,224)" />
<polygon points="807.3,228.6 885.3,236.6 828.9,257.9" fill="rgb(177,180,184)" />
<polygon points="885.3,236.6 807.3,228.6 824.8,172.1" fill="rgb(204,205,208)" />
<polygon points="807.3,228.6 828.9,257.9 779.6,241.2" fill="rgb(107,111,117)" />
<polygon points="769.4,217.8 807.3,228.6 779.6,241.2" fill="rgb(148,151,157)" />
<polygon points="807.3,228.6 769.4,217.8 824.8,172.1" fill="rgb(172,174,179)" />
<polygon points="900.0,206.7 872.6,161.8 900.0,104.9" fill="rgb(204,205,208)" />
<polygon points="885.3,236.6 900.0,206.7 900.0,218.2" fill="rgb(72,76,82)" />
<polygon points="900.0,206.7 885.3,236.6 824.8,172.1" fill="rgb(193,195,198)" />
<polygon points="872.6,161.8 900.0,206.7 824.8,172.1" fill="rgb(200,202,205)" />
<polygon points="105.7,351.8 154.3,306.1 134.9,368.3" fill="rgb(111,115,121)" />
<polygon points="105.7,351.8 93.0,315.8 154.3,306.1" fill="rgb(221,222,225)" />
<polygon points="73.9,394.8 105.7,351.8 134.9,368.3" fill="rgb(94,98,104)" />
<polygon points="105.7,351.8 73.9,394.8 41.3,338.8" fill="rgb(192,193,197)" />
<polygon points="93.0,315.8 105.7,351.8 41.3,338.8" fill="rgb(232,233,235)" />
<polygon points="416.0,398.8 332.3,416.2 370.8,348.6" fill="rgb(73,77,83)" />
<polygon points="413.1,353.2 416.0,398.8 370.8,348.6" fill="rgb(72,76,82)" />
<polygon points="437.4,181.9 454.4,166.4 465.6,229.3" fill="rgb(72,76,82)" />
<polygon points="671.7,296.9 620.9,301.3 622.9,243.3" fill="rgb(72,76,82)" />
<polygon points="512.4,242.7 475.8,278.7 465.6,229.3" fill="rgb(175,178,182)" />
<polygon points="475.8,278.7 448.7,293.4 465.6,229.3" fill="rgb(193,195,199)" />
<polygon points="154.3,306.1 191.8,341.8 134.9,368.3" fill="rgb(88,92,98)" />
<polygon points="191.8,341.8 154.3,306.1 210.0,299.3" fill="rgb(90,94,100)" />
<polygon points="220.6,356.0 191.8,341.8 210.0,299.3" fill="rgb(232,233,235)" />
<polygon points="191.8,341.8 161.1,380.0 134.9,368.3" fill="rgb(190,192,196)" />
<polygon points="97.9,433.0 161.1,380.0 171.1,475.9" fill="rgb(165,168,173)" />
<polygon points="161.1,380.0 97.9,433.0 134.9,368.3" fill="rgb(185,187,191)" />
<polygon points="215.4,385.8 236.7,410.2 171.1,475.9" fill="rgb(72,76,82)" />
<polygon points="161.1,380.0 215.4,385.8 171.1,475.9" fill="rgb(162,165,170)" />
<polygon points="215.4,385.8 191.8,341.8 220.6,356.0" fill="rgb(182,185,189)" />
<polygon points="215.4,385.8 161.1,380.0 191.8,341.8" fill="rgb(197,199,202)" />
<polygon points="295.8,346.3 309.7,411.5 254.1,359.7" fill="rgb(87,91,97)" />
<polygon points="309.7,411.5 295.8,346.3 335.3,363.4" fill="rgb(181,183,187)" />
<polygon points="244.1,381.0 309.7,411.5 236.7,410.2" fill="rgb(76,80,86)" />
<polygon points="309.7,411.5 244.1,381.0 254.1,359.7" fill="rgb(100,104,110)" />
<polygon points="215.4,385.8 244.1,381.0 236.7,410.2" fill="rgb(73,77,83)" />
<polygon points="244.1,381.0 220.6,356.0 254.1,359.7" fill="rgb(229,230,232)" />
<polygon points="244.1,381.0 215.4,385.8 220.6,356.0" fill="rgb(146,150,155)" />
<polygon points="333.2,524.1 308.1,483.8 353.4,509.7" fill="rgb(86,90,96)" />
<polygon points="308.1,483.8 333.2,524.1 249.2,550.6" fill="rgb(76,80,86)" />
<polygon points="208.6,537.3 308.1,483.8 249.2,550.6" fill="rgb(145,148,154)" />
<polygon points="308.1,483.8 208.6,537.3 236.7,410.2" fill="rgb(232,233,235)" />
<polygon points="836.6,533.2 885.5,504.3 887.0,555.2" fill="rgb(113,117,123)" />
<polygon points="885.5,504.3 900.0,512.3 887.0,555.2" fill="rgb(87,91,97)" />
<polygon points="885.5,504.3 836.6,533.2 816.1,427.0" fill="rgb(117,121,127)" />
<polygon points="900.0,512.3 885.5,504.3 892.2,416.5" fill="rgb(76,80,86)" />
<polygon points="511.6,444.8 509.7,391.1 551.6,444.3" fill="rgb(102,106,112)" />
<polygon points="509.7,391.1 511.6,444.8 471.8,436.2" fill="rgb(209,210,213)" />
<polygon points="660.0,559.3 703.0,534.6 772.6,560.0" fill="rgb(76,80,86)" />
<polygon points="764.5,482.2 836.6,533.2 770.3,552.6" fill="rgb(178,180,184)" />
<polygon points="836.6,533.2 764.5,482.2 816.1,427.0" fill="rgb(173,176,180)" />
<polygon points="171.4,227.2 211.6,241.2 210.0,299.3" fill="rgb(180,182,186)" />
<polygon points="153.6,184.5 106.2,195.9 110.3,165.1" fill="rgb(180,182,186)" />
<polygon points="153.6,184.5 171.4,227.2 106.2,195.9" fill="rgb(171,173,178)" />
<polygon points="207.7,149.1 153.6,184.5 175.5,90.6" fill="rgb(211,212,215)" />
<polygon points="255.7,103.2 175.5,90.6 208.4,51.5" fill="rgb(116,120,126)" />
<polygon points="255.7,103.2 207.7,149.1 175.5,90.6" fill="rgb(213,214,217)" />
<polygon points="268.5,13.4 255.7,103.2 208.4,51.5" fill="rgb(121,125,131)" />
<polygon points="255.7,103.2 341.7,132.1 324.8,160.1" fill="rgb(198,199,203)" />
<polygon points="341.7,132.1 255.7,103.2 360.6,54.1" fill="rgb(161,164,169)" />
<polygon points="255.7,103.2 268.5,13.4 360.6,54.1" fill="rgb(191,193,197)" />
<polygon points="48.9,152.6 106.3,121.2 110.3,165.1" fill="rgb(72,76,82)" />
<polygon points="73.8,86.6 106.3,121.2 48.9,152.6" fill="rgb(205,206,210)" />
<polygon points="106.3,121.2 73.8,86.6 120.3,70.2" fill="rgb(219,220,223)" />
<polygon points="106.3,121.2 120.3,70.2 175.5,90.6" fill="rgb(108,112,118)" />
<polygon points="106.3,121.2 153.6,184.5 110.3,165.1" fill="rgb(132,135,141)" />
<polygon points="153.6,184.5 106.3,121.2 175.5,90.6" fill="rgb(104,108,114)" />
<polygon points="175.5,90.6 156.4,63.4 208.4,51.5" fill="rgb(72,76,82)" />
<polygon points="156.4,63.4 166.5,27.5 208.4,51.5" fill="rgb(132,135,141)" />
<polygon points="120.3,70.2 156.4,63.4 175.5,90.6" fill="rgb(76,80,86)" />
<polygon points="166.5,27.5 156.4,63.4 120.3,70.2" fill="rgb(127,131,137)" />
<polygon points="430.5,14.1 402.9,28.9 413.4,0.0" fill="rgb(129,133,139)" />
<polygon points="402.9,28.9 430.5,14.1 445.9,59.7" fill="rgb(95,99,105)" />
<polygon points="522.0,13.7 430.5,14.1 413.4,0.0" fill="rgb(211,212,215)" />
<polygon points="364.3,138.8 341.7,132.1 360.6,54.1" fill="rgb(191,193,196)" />
<polygon points="401.3,119.7 364.3,138.8 360.6,54.1" fill="rgb(132,136,141)" />
<polygon points="364.3,138.8 355.9,166.6 341.7,132.1" fill="rgb(175,177,182)" />
<polygon points="402.9,28.9 409.4,92.7 360.6,54.1" fill="rgb(174,176,181)" />
<polygon points="409.4,92.7 401.3,119.7 360.6,54.1" fill="rgb(161,164,169)" />
<polygon points="409.4,92.7 402.9,28.9 445.9,59.7" fill="rgb(92,96,102)" />
<polygon points="769.4,217.8 768.8,157.3 824.8,172.1" fill="rgb(232,233,235)" />
<polygon points="768.8,157.3 779.6,101.2 824.8,172.1" fill="rgb(183,185,189)" />
<polygon points="768.8,157.3 720.6,211.2 718.1,165.4" fill="rgb(133,137,143)" />
<polygon points="768.8,157.3 769.4,217.8 720.6,211.2" fill="rgb(137,140,146)" />
<polygon points="871.3,37.7 862.4,78.6 847.0,66.3" fill="rgb(209,210,213)" />
<polygon points="900.0,57.8 862.4,78.6 871.3,37.7" fill="rgb(73,77,83)" />
<polygon points="862.4,78.6 872.6,161.8 824.8,172.1" fill="rgb(229,230,233)" />
<polygon points="862.4,78.6 779.6,101.2 847.0,66.3" fill="rgb(221,222,224)" />
<polygon points="779.6,101.2 862.4,78.6 824.8,172.1" fill="rgb(189,191,195)" />
<polygon points="535.7,64.5 522.0,13.7 581.4,31.8" fill="rgb(192,194,198)" />
<polygon points="881.5,325.1 831.5,396.5 793.2,330.2" fill="rgb(201,202,206)" />
<polygon points="416.0,398.8 378.8,467.0 332.3,416.2" fill="rgb(100,104,110)" />
<polygon points="378.8,467.0 416.0,398.8 437.2,472.8" fill="rgb(225,226,228)" />
<polygon points="308.1,483.8 378.8,467.0 353.4,509.7" fill="rgb(132,136,141)" />
<polygon points="437.2,472.8 452.8,419.9 471.8,436.2" fill="rgb(176,179,183)" />
<polygon points="416.0,398.8 452.8,419.9 437.2,472.8" fill="rgb(201,202,206)" />
<polygon points="452.8,419.9 509.7,391.1 471.8,436.2" fill="rgb(180,182,186)" />
<polygon points="452.8,419.9 416.0,398.8 413.1,353.2" fill="rgb(157,160,165)" />
<polygon points="509.7,391.1 452.8,419.9 413.1,353.2" fill="rgb(170,173,178)" />
<polygon points="512.4,242.7 586.3,193.6 606.4,232.4" fill="rgb(207,208,211)" />
<polygon points="685.5,216.6 640.2,187.1 718.1,165.4" fill="rgb(223,224,227)" />
<polygon points="645.0,217.2 640.2,187.1 685.5,216.6" fill="rgb(192,194,197)" />
<polygon points="640.2,187.1 586.3,193.6 583.1,140.1" fill="rgb(131,135,141)" />
<polygon points="640.2,187.1 645.0,217.2 606.4,232.4" fill="rgb(106,110,116)" />
<polygon points="586.3,193.6 640.2,187.1 606.4,232.4" fill="rgb(121,125,131)" />
<polygon points="524.3,166.5 454.4,166.4 495.0,108.0" fill="rgb(128,132,138)" />
<polygon points="524.3,166.5 586.3,193.6 512.4,242.7" fill="rgb(229,230,232)" />
<polygon points="524.3,166.5 512.4,242.7 465.6,229.3" fill="rgb(177,179,183)" />
<polygon points="454.4,166.4 524.3,166.5 465.6,229.3" fill="rgb(202,203,206)" />
<polygon points="454.4,166.4 461.5,105.5 495.0,108.0" fill="rgb(162,165,169)" />
<polygon points="428.8,137.9 454.4,166.4 437.4,181.9" fill="rgb(129,133,139)" />
<polygon points="428.8,137.9 364.3,138.8 401.3,119.7" fill="rgb(91,95,101)" />
<polygon points="428.8,137.9 461.5,105.5 454.4,166.4" fill="rgb(186,188,192)" />
<polygon points="355.9,166.6 428.8,137.9 437.4,181.9" fill="rgb(199,201,204)" />
<polygon points="364.3,138.8 428.8,137.9 355.9,166.6" fill="rgb(75,79,85)" />
<polygon points="648.1,327.7 620.9,301.3 671.7,296.9" fill="rgb(166,169,173)" />
<polygon points="648.1,327.7 714.6,353.5 654.5,360.2" fill="rgb(85,89,95)" />
<polygon points="648.1,327.7 671.7,296.9 714.6,353.5" fill="rgb(103,107,113)" />
<polygon points="619.6,352.7 648.1,327.7 654.5,360.2" fill="rgb(181,183,188)" />
<polygon points="620.9,301.3 648.1,327.7 619.6,352.7" fill="rgb(195,197,200)" />
<polygon points="448.7,293.4 520.8,330.3 413.1,353.2" fill="rgb(206,207,210)" />
<polygon points="520.8,330.3 509.7,391.1 413.1,353.2" fill="rgb(209,210,213)" />
<polygon points="475.8,278.7 520.8,330.3 448.7,293.4" fill="rgb(105,109,115)" />
<polygon points="520.8,330.3 475.8,278.7 512.4,242.7" fill="rgb(90,94,100)" />
<polygon points="337.1,297.7 281.2,262.5 320.1,241.8" fill="rgb(171,174,178)" />
<polygon points="337.1,297.7 413.2,282.8 370.8,348.6" fill="rgb(150,153,159)" />
<polygon points="337.1,297.7 320.1,241.8 413.2,282.8" fill="rgb(142,145,151)" />
<polygon points="335.3,363.4 337.1,297.7 370.8,348.6" fill="rgb(217,218,221)" />
<polygon points="295.8,346.3 337.1,297.7 335.3,363.4" fill="rgb(195,197,201)" />
<polygon points="307.2,455.7 309.7,411.5 332.3,416.2" fill="rgb(203,205,208)" />
<polygon points="378.8,467.0 307.2,455.7 332.3,416.2" fill="rgb(100,104,110)" />
<polygon points="307.2,455.7 378.8,467.0 308.1,483.8" fill="rgb(150,154,159)" />
<polygon points="309.7,411.5 307.2,455.7 236.7,410.2" fill="rgb(210,211,214)" />
<polygon points="307.2,455.7 308.1,483.8 236.7,410.2" fill="rgb(209,210,213)" />
<polygon points="531.7,560.0 552.5,550.4 634.1,560.0" fill="rgb(87,91,97)" />
<polygon points="652.5,560.0 660.0,559.3 772.6,560.0" fill="rgb(130,134,140)" />
<polygon points="703.0,534.6 724.3,521.9 770.3,552.6" fill="rgb(150,153,158)" />
<polygon points="724.3,521.9 764.5,482.2 770.3,552.6" fill="rgb(188,190,194)" />
<polygon points="764.5,482.2 781.8,438.3 816.1,427.0" fill="rgb(212,213,216)" />
<polygon points="211.6,241.2 240.4,254.1 210.0,299.3" fill="rgb(192,193,197)" />
<polygon points="430.5,14.1 475.4,49.3 445.9,59.7" fill="rgb(168,170,175)" />
<polygon points="475.4,49.3 430.5,14.1 522.0,13.7" fill="rgb(182,184,189)" />
<polygon points="535.7,64.5 475.4,49.3 522.0,13.7" fill="rgb(165,168,173)" />
<polygon points="475.4,49.3 535.7,64.5 495.0,108.0" fill="rgb(128,132,138)" />
<polygon points="475.4,49.3 461.5,105.5 445.9,59.7" fill="rgb(185,187,191)" />
<polygon points="461.5,105.5 475.4,49.3 495.0,108.0" fill="rgb(142,145,151)" />
<polygon points="766.4,0.0 888.9,0.0 848.5,10.2" fill="rgb(114,118,124)" />
<polygon points="813.8,28.6 766.4,0.0 848.5,10.2" fill="rgb(151,154,159)" />
<polygon points="753.3,0.0 663.6,6.0 587.9,0.0" fill="rgb(75,79,85)" />
<polygon points="587.9,0.0 663.6,6.0 581.4,31.8" fill="rgb(87,91,97)" />
<polygon points="898.8,103.2 900.0,57.8 900.0,104.9" fill="rgb(166,169,174)" />
<polygon points="898.8,103.2 862.4,78.6 900.0,57.8" fill="rgb(190,192,196)" />
<polygon points="872.6,161.8 898.8,103.2 900.0,104.9" fill="rgb(178,181,185)" />
<polygon points="862.4,78.6 898.8,103.2 872.6,161.8" fill="rgb(232,233,235)" />
<polygon points="535.7,64.5 555.9,83.5 495.0,108.0" fill="rgb(72,76,82)" />
<polygon points="555.9,83.5 524.3,166.5 495.0,108.0" fill="rgb(104,108,114)" />
<polygon points="555.9,83.5 535.7,64.5 581.4,31.8" fill="rgb(72,76,82)" />
<polygon points="862.5,419.5 885.5,504.3 816.1,427.0" fill="rgb(143,147,152)" />
<polygon points="885.5,504.3 862.5,419.5 892.2,416.5" fill="rgb(136,139,145)" />
<polygon points="848.9,403.5 881.5,325.1 892.2,416.5" fill="rgb(218,219,222)" />
<polygon points="848.9,403.5 831.5,396.5 881.5,325.1" fill="rgb(199,200,204)" />
<polygon points="862.5,419.5 848.9,403.5 892.2,416.5" fill="rgb(195,197,200)" />
<polygon points="831.5,396.5 848.9,403.5 816.1,427.0" fill="rgb(199,201,204)" />
<polygon points="848.9,403.5 862.5,419.5 816.1,427.0" fill="rgb(194,195,199)" />
<polygon points="700.5,121.6 768.8,157.3 718.1,165.4" fill="rgb(106,110,116)" />
<polygon points="779.6,101.2 700.5,121.6 725.5,77.3" fill="rgb(189,191,195)" />
<polygon points="768.8,157.3 700.5,121.6 779.6,101.2" fill="rgb(93,97,103)" />
<polygon points="428.8,98.4 409.4,92.7 445.9,59.7" fill="rgb(72,76,82)" />
<polygon points="461.5,105.5 428.8,98.4 445.9,59.7" fill="rgb(213,214,217)" />
<polygon points="428.8,137.9 428.8,98.4 461.5,105.5" fill="rgb(200,202,205)" />
<polygon points="409.4,92.7 428.8,98.4 401.3,119.7" fill="rgb(75,79,85)" />
<polygon points="428.8,98.4 428.8,137.9 401.3,119.7" fill="rgb(100,104,110)" />
<polygon points="565.2,298.8 520.8,330.3 512.4,242.7" fill="rgb(148,152,157)" />
<polygon points="565.2,298.8 512.4,242.7 606.4,232.4" fill="rgb(152,155,160)" />
<polygon points="622.9,243.3 565.2,298.8 606.4,232.4" fill="rgb(210,211,214)" />
<polygon points="620.9,301.3 565.2,298.8 622.9,243.3" fill="rgb(122,126,132)" />
<polygon points="570.2,444.5 585.3,469.8 551.6,444.3" fill="rgb(73,77,83)" />
<polygon points="520.8,330.3 546.4,378.6 509.7,391.1" fill="rgb(112,116,122)" />
<polygon points="509.7,391.1 546.4,378.6 551.6,444.3" fill="rgb(97,101,107)" />
<polygon points="546.4,378.6 570.2,444.5 551.6,444.3" fill="rgb(164,167,172)" />
<polygon points="570.2,444.5 546.4,378.6 597.6,410.2" fill="rgb(130,134,140)" />
<polygon points="337.1,297.7 271.5,287.0 281.2,262.5" fill="rgb(203,204,208)" />
<polygon points="271.5,287.0 337.1,297.7 295.8,346.3" fill="rgb(106,110,116)" />
<polygon points="271.5,287.0 295.8,346.3 254.1,359.7" fill="rgb(72,76,82)" />
<polygon points="271.5,287.0 254.1,359.7 210.0,299.3" fill="rgb(222,223,225)" />
<polygon points="240.4,254.1 271.5,287.0 210.0,299.3" fill="rgb(175,178,182)" />
<polygon points="382.8,559.6 454.3,525.5 516.6,557.7" fill="rgb(116,120,126)" />
<polygon points="382.8,559.6 531.7,560.0 371.2,560.0" fill="rgb(134,138,144)" />
<polygon points="531.7,560.0 382.8,559.6 516.6,557.7" fill="rgb(134,138,144)" />
<polygon points="454.3,525.5 541.0,522.0 516.6,557.7" fill="rgb(97,101,107)" />
<polygon points="541.0,522.0 531.7,560.0 516.6,557.7" fill="rgb(190,192,195)" />
<polygon points="541.0,522.0 552.5,550.4 531.7,560.0" fill="rgb(224,225,228)" />
<polygon points="585.3,469.8 541.0,522.0 551.6,444.3" fill="rgb(147,150,156)" />
<polygon points="831.5,396.5 790.8,359.8 793.2,330.2" fill="rgb(76,80,86)" />
<polygon points="790.8,359.8 714.6,353.5 793.2,330.2" fill="rgb(201,203,206)" />
<polygon points="790.8,359.8 781.8,438.3 714.6,353.5" fill="rgb(178,181,185)" />
<polygon points="790.8,359.8 831.5,396.5 816.1,427.0" fill="rgb(72,76,82)" />
<polygon points="781.8,438.3 790.8,359.8 816.1,427.0" fill="rgb(177,179,183)" />
<polygon points="657.3,404.0 619.6,352.7 654.5,360.2" fill="rgb(206,207,210)" />
<polygon points="657.3,404.0 597.6,410.2 619.6,352.7" fill="rgb(214,215,217)" />
<polygon points="724.3,521.9 705.8,459.1 764.5,482.2" fill="rgb(122,126,132)" />
<polygon points="705.8,459.1 781.8,438.3 764.5,482.2" fill="rgb(184,186,190)" />
<polygon points="657.3,404.0 705.8,459.1 653.2,454.5" fill="rgb(155,158,163)" />
<polygon points="552.5,550.4 616.3,524.7 634.1,560.0" fill="rgb(169,171,176)" />
<polygon points="616.3,524.7 541.0,522.0 585.3,469.8" fill="rgb(209,210,213)" />
<polygon points="541.0,522.0 616.3,524.7 552.5,550.4" fill="rgb(214,215,218)" />
<polygon points="335.9,203.5 311.4,210.4 324.8,160.1" fill="rgb(217,218,221)" />
<polygon points="281.2,262.5 311.4,210.4 320.1,241.8" fill="rgb(73,77,83)" />
<polygon points="311.4,210.4 335.9,203.5 320.1,241.8" fill="rgb(156,159,164)" />
<polygon points="239.6,203.5 240.4,254.1 211.6,241.2" fill="rgb(230,231,233)" />
<polygon points="750.7,21.4 813.8,28.6 749.5,57.8" fill="rgb(193,195,199)" />
<polygon points="750.7,21.4 766.4,0.0 813.8,28.6" fill="rgb(198,200,203)" />
<polygon points="766.4,0.0 750.7,21.4 753.3,0.0" fill="rgb(72,76,82)" />
<polygon points="750.7,21.4 663.6,6.0 753.3,0.0" fill="rgb(72,76,82)" />
<polygon points="679.7,41.8 625.7,119.9 581.4,31.8" fill="rgb(168,171,175)" />
<polygon points="663.6,6.0 679.7,41.8 581.4,31.8" fill="rgb(72,76,82)" />
<polygon points="750.7,21.4 679.7,41.8 663.6,6.0" fill="rgb(72,76,82)" />
<polygon points="555.9,83.5 557.1,164.7 524.3,166.5" fill="rgb(217,218,221)" />
<polygon points="586.3,193.6 557.1,164.7 583.1,140.1" fill="rgb(146,149,155)" />
<polygon points="524.3,166.5 557.1,164.7 586.3,193.6" fill="rgb(154,157,163)" />
<polygon points="642.6,130.6 640.2,187.1 583.1,140.1" fill="rgb(193,195,198)" />
<polygon points="625.7,119.9 642.6,130.6 583.1,140.1" fill="rgb(113,117,123)" />
<polygon points="640.2,187.1 642.6,130.6 718.1,165.4" fill="rgb(220,221,224)" />
<polygon points="642.6,130.6 700.5,121.6 718.1,165.4" fill="rgb(158,161,166)" />
<polygon points="565.2,298.8 572.3,352.5 520.8,330.3" fill="rgb(221,222,224)" />
<polygon points="572.3,352.5 546.4,378.6 520.8,330.3" fill="rgb(158,161,166)" />
<polygon points="572.3,352.5 620.9,301.3 619.6,352.7" fill="rgb(76,80,86)" />
<polygon points="572.3,352.5 565.2,298.8 620.9,301.3" fill="rgb(220,221,224)" />
<polygon points="597.6,410.2 572.3,352.5 619.6,352.7" fill="rgb(75,79,85)" />
<polygon points="546.4,378.6 572.3,352.5 597.6,410.2" fill="rgb(120,124,130)" />
<polygon points="382.8,559.6 404.5,537.9 454.3,525.5" fill="rgb(219,220,222)" />
<polygon points="454.3,525.5 404.5,537.9 437.2,472.8" fill="rgb(175,177,182)" />
<polygon points="404.5,537.9 371.2,560.0 353.4,509.7" fill="rgb(131,135,141)" />
<polygon points="404.5,537.9 382.8,559.6 371.2,560.0" fill="rgb(72,76,82)" />
<polygon points="378.8,467.0 404.5,537.9 353.4,509.7" fill="rgb(134,137,143)" />
<polygon points="404.5,537.9 378.8,467.0 437.2,472.8" fill="rgb(214,215,218)" />
<polygon points="500.7,460.9 541.0,522.0 454.3,525.5" fill="rgb(222,223,225)" />
<polygon points="500.7,460.9 454.3,525.5 437.2,472.8" fill="rgb(129,133,139)" />
<polygon points="500.7,460.9 511.6,444.8 551.6,444.3" fill="rgb(72,76,82)" />
<polygon points="541.0,522.0 500.7,460.9 551.6,444.3" fill="rgb(205,206,210)" />
<polygon points="500.7,460.9 437.2,472.8 471.8,436.2" fill="rgb(178,180,185)" />
<polygon points="511.6,444.8 500.7,460.9 471.8,436.2" fill="rgb(152,155,160)" />
<polygon points="672.0,480.6 724.3,521.9 703.0,534.6" fill="rgb(103,107,113)" />
<polygon points="672.0,480.6 705.8,459.1 724.3,521.9" fill="rgb(118,122,128)" />
<polygon points="705.8,459.1 672.0,480.6 653.2,454.5" fill="rgb(112,116,122)" />
<polygon points="672.0,480.6 616.3,524.7 653.2,454.5" fill="rgb(82,86,92)" />
<polygon points="660.0,559.3 672.0,480.6 703.0,534.6" fill="rgb(200,201,205)" />
<polygon points="616.3,524.7 672.0,480.6 660.0,559.3" fill="rgb(72,76,82)" />
<polygon points="697.9,373.5 705.8,459.1 657.3,404.0" fill="rgb(124,128,134)" />
<polygon points="714.6,353.5 697.9,373.5 654.5,360.2" fill="rgb(75,79,85)" />
<polygon points="697.9,373.5 657.3,404.0 654.5,360.2" fill="rgb(72,76,82)" />
<polygon points="781.8,438.3 697.9,373.5 714.6,353.5" fill="rgb(214,215,218)" />
<polygon points="705.8,459.1 697.9,373.5 781.8,438.3" fill="rgb(190,192,196)" />
<polygon points="652.5,560.0 639.3,557.3 660.0,559.3" fill="rgb(123,127,133)" />
<polygon points="639.3,557.3 616.3,524.7 660.0,559.3" fill="rgb(72,76,82)" />
<polygon points="639.3,557.3 652.5,560.0 634.1,560.0" fill="rgb(141,145,150)" />
<polygon points="616.3,524.7 639.3,557.3 634.1,560.0" fill="rgb(77,81,87)" />
<polygon points="617.8,451.7 616.3,524.7 585.3,469.8" fill="rgb(208,209,213)" />
<polygon points="616.3,524.7 617.8,451.7 653.2,454.5" fill="rgb(158,161,166)" />
<polygon points="570.2,444.5 617.8,451.7 585.3,469.8" fill="rgb(76,80,86)" />
<polygon points="617.8,451.7 570.2,444.5 597.6,410.2" fill="rgb(129,133,139)" />
<polygon points="657.3,404.0 617.8,451.7 597.6,410.2" fill="rgb(217,218,221)" />
<polygon points="617.8,451.7 657.3,404.0 653.2,454.5" fill="rgb(90,94,100)" />
<polygon points="215.1,173.9 211.6,241.2 171.4,227.2" fill="rgb(179,181,185)" />
<polygon points="215.1,173.9 239.6,203.5 211.6,241.2" fill="rgb(84,88,94)" />
<polygon points="153.6,184.5 215.1,173.9 171.4,227.2" fill="rgb(221,222,225)" />
<polygon points="215.1,173.9 153.6,184.5 207.7,149.1" fill="rgb(209,210,213)" />
<polygon points="255.7,103.2 215.1,173.9 207.7,149.1" fill="rgb(202,204,207)" />
<polygon points="239.6,203.5 262.3,253.8 240.4,254.1" fill="rgb(129,133,139)" />
<polygon points="271.5,287.0 262.3,253.8 281.2,262.5" fill="rgb(223,224,226)" />
<polygon points="262.3,253.8 271.5,287.0 240.4,254.1" fill="rgb(137,141,146)" />
<polygon points="557.1,164.7 582.4,112.8 583.1,140.1" fill="rgb(77,81,87)" />
<polygon points="582.4,112.8 557.1,164.7 555.9,83.5" fill="rgb(205,206,209)" />
<polygon points="582.4,112.8 625.7,119.9 583.1,140.1" fill="rgb(99,103,109)" />
<polygon points="625.7,119.9 582.4,112.8 581.4,31.8" fill="rgb(155,158,163)" />
<polygon points="582.4,112.8 555.9,83.5 581.4,31.8" fill="rgb(215,216,219)" />
<polygon points="642.6,130.6 693.6,62.0 700.5,121.6" fill="rgb(214,215,218)" />
<polygon points="700.5,121.6 693.6,62.0 725.5,77.3" fill="rgb(77,81,87)" />
<polygon points="679.7,41.8 693.6,62.0 625.7,119.9" fill="rgb(205,206,210)" />
<polygon points="693.6,62.0 642.6,130.6 625.7,119.9" fill="rgb(107,111,117)" />
<polygon points="725.5,77.3 693.6,62.0 749.5,57.8" fill="rgb(75,79,85)" />
<polygon points="693.6,62.0 750.7,21.4 749.5,57.8" fill="rgb(104,108,114)" />
<polygon points="693.6,62.0 679.7,41.8 750.7,21.4" fill="rgb(205,207,210)" />
<polygon points="295.5,200.0 262.3,253.8 239.6,203.5" fill="rgb(219,220,222)" />
<polygon points="311.4,210.4 295.5,200.0 324.8,160.1" fill="rgb(76,80,86)" />
<polygon points="295.5,200.0 311.4,210.4 281.2,262.5" fill="rgb(72,76,82)" />
<polygon points="262.3,253.8 295.5,200.0 281.2,262.5" fill="rgb(219,220,222)" />
<polygon points="295.5,200.0 255.7,103.2 324.8,160.1" fill="rgb(141,145,150)" />
<polygon points="295.5,200.0 215.1,173.9 255.7,103.2" fill="rgb(209,210,213)" />
<polygon points="215.1,173.9 295.5,200.0 239.6,203.5" fill="rgb(97,101,107)" />
</svg>